# xmcd
#
# Track frame offsets:
#  150
#  13117
#  27417
#  44365
#  59515
#  76575
#  91195
#  102445
#  112195
#  128840
#  139295
#  152492
#  167967
#  181877
#  193245
#  204115
#  218265
#  230695
#  241515
#  254795
#
# Disc length: 3565 seconds
#
# Revision: 0
# Processed by: cddbd v1.5.1PL2 Copyright (c) Steve Scherf et al.
# Submitted via: Collectorz.com_Music_Collector 6.9
#
DISCID=100deb14
DTITLE=Tommy Tucker - Hi- Heel Sneakers
DYEAR=1995
DGENRE=Blues - R&B
TTITLE0=Hi-Heal Sneakers
TTITLE1=Just For A Day
TTITLE2=Trouble In Mind
TTITLE3=Walkin' The Dog
TTITLE4=Hard Luck Blues
TTITLE5=I Don't Want 'Cha
TTITLE6=Long Tall Shorty
TTITLE7=It's A Mighty Hard Way
TTITLE8=Come Rain Or Come Shine
TTITLE9=I Warned You About Him
TTITLE10=I Can't Believe It
TTITLE11=Suffering With The Blues
TTITLE12=Alimony
TTITLE13=All About Melanie
TTITLE14=Chewin' Gum
TTITLE15=I've Been A Fool
TTITLE16=I'm Shorty
TTITLE17=Sitting Home Alone
TTITLE18=A Whole Lotta Fun ( Before The Weekend Is Done )
TTITLE19=Real True Love ( I Ain't Had None Lately )
EXTD=
EXTT0=
EXTT1=
EXTT2=
EXTT3=
EXTT4=
EXTT5=
EXTT6=
EXTT7=
EXTT8=
EXTT9=
EXTT10=
EXTT11=
EXTT12=
EXTT13=
EXTT14=
EXTT15=
EXTT16=
EXTT17=
EXTT18=
EXTT19=
PLAYORDER=
